<?xml version="1.0" encoding="UTF-8" standalone="no"?>
<!-- Created with Inkscape (http://www.inkscape.org/) -->

<svg
   xmlns:dc="http://purl.org/dc/elements/1.1/"
   xmlns:cc="http://creativecommons.org/ns#"
   xmlns:rdf="http://www.w3.org/1999/02/22-rdf-syntax-ns#"
   xmlns:svg="http://www.w3.org/2000/svg"
   xmlns="http://www.w3.org/2000/svg"
   xmlns:sodipodi="http://sodipodi.sourceforge.net/DTD/sodipodi-0.dtd"
   xmlns:inkscape="http://www.inkscape.org/namespaces/inkscape"
   width="210mm"
   height="297mm"
   viewBox="0 0 210 297"
   version="1.1"
   id="svg8"
   inkscape:version="0.92.4 (5da689c313, 2019-01-14)"
   sodipodi:docname="title.svg">
  <defs
     id="defs2" />
  <sodipodi:namedview
     id="base"
     pagecolor="#ffffff"
     bordercolor="#666666"
     borderopacity="1.0"
     inkscape:pageopacity="0.0"
     inkscape:pageshadow="2"
     inkscape:zoom="1.979899"
     inkscape:cx="384.47343"
     inkscape:cy="604.9352"
     inkscape:document-units="mm"
     inkscape:current-layer="layer1"
     showgrid="false"
     inkscape:window-width="1920"
     inkscape:window-height="1017"
     inkscape:window-x="-8"
     inkscape:window-y="-8"
     inkscape:window-maximized="1" />
  <metadata
     id="metadata5">
    <rdf:RDF>
      <cc:Work
         rdf:about="">
        <dc:format>image/svg+xml</dc:format>
        <dc:type
           rdf:resource="http://purl.org/dc/dcmitype/StillImage" />
        <dc:title />
      </cc:Work>
    </rdf:RDF>
  </metadata>
  <g
     inkscape:label="Layer 1"
     inkscape:groupmode="layer"
     id="layer1">
    <path
       style="opacity:0.95999995;fill:#f4e3d7;fill-opacity:1;stroke:#ffffff;stroke-width:1.9491564;stroke-linecap:round;stroke-linejoin:round;stroke-miterlimit:4;stroke-dasharray:none;stroke-dashoffset:0;stroke-opacity:1"
       d="M 281.13477 431.2207 L 281.13477 442.64844 L 281.13477 454.07812 L 283.09961 454.07812 L 285.06445 454.07812 L 285.06445 456.04102 L 285.06445 458.00586 L 294.70703 458.00586 L 304.34961 458.00586 L 304.34961 456.04102 L 304.34961 454.07812 L 306.31445 454.07812 L 308.2793 454.07812 L 308.2793 442.64844 L 308.2793 431.2207 L 304.5293 431.2207 L 300.7793 431.2207 L 300.7793 442.82812 L 300.7793 454.43555 L 294.70703 454.43555 L 288.63477 454.43555 L 288.63477 442.82812 L 288.63477 431.2207 L 284.88477 431.2207 L 281.13477 431.2207 z M 316.49219 431.2207 L 316.49219 444.61328 L 316.49219 458.00586 L 320.24219 458.00586 L 323.99219 458.00586 L 323.99219 450.14844 L 323.99219 442.29102 L 325.95703 442.29102 L 327.92188 442.29102 L 327.92188 444.25586 L 327.92188 446.2207 L 329.88477 446.2207 L 331.84961 446.2207 L 331.84961 448.18555 L 331.84961 450.14844 L 333.81445 450.14844 L 335.7793 450.14844 L 335.7793 454.07812 L 335.7793 458.00586 L 339.5293 458.00586 L 343.2793 458.00586 L 343.2793 444.61328 L 343.2793 431.2207 L 339.5293 431.2207 L 335.7793 431.2207 L 335.7793 436.93555 L 335.7793 442.64844 L 333.63477 442.64844 L 331.49219 442.64844 L 331.49219 440.68555 L 331.49219 438.7207 L 329.5293 438.7207 L 327.56445 438.7207 L 327.56445 436.75586 L 327.56445 434.79102 L 325.7793 434.79102 L 323.99219 434.79102 L 323.99219 433.00586 L 323.99219 431.2207 L 320.24219 431.2207 L 316.49219 431.2207 z M 351.49219 431.2207 L 351.49219 444.61328 L 351.49219 458.00586 L 355.24219 458.00586 L 358.99219 458.00586 L 358.99219 444.61328 L 358.99219 431.2207 L 355.24219 431.2207 L 351.49219 431.2207 z M 371.13477 431.2207 L 371.13477 433.00586 L 371.13477 434.79102 L 369.17188 434.79102 L 367.20703 434.79102 L 367.20703 444.41602 L 367.20703 454.04102 L 369.08203 454.14844 L 370.95703 454.25586 L 371.06445 456.13086 L 371.17188 458.00586 L 382.58203 458.00586 L 393.99219 458.00586 L 393.99219 456.2207 L 393.99219 454.43555 L 392.00977 454.43555 L 390.0293 454.43555 L 390.13477 452.38086 L 390.24219 450.32812 L 392.11719 450.21875 L 393.99219 450.11133 L 393.99219 442.45117 L 393.99219 434.79102 L 392.0293 434.79102 L 390.06445 434.79102 L 390.06445 433.00586 L 390.06445 431.2207 L 380.59961 431.2207 L 371.13477 431.2207 z M 402.20703 431.2207 L 402.20703 442.64844 L 402.20703 454.07812 L 404.17188 454.07812 L 406.13477 454.07812 L 406.13477 456.04102 L 406.13477 458.00586 L 415.7793 458.00586 L 425.42188 458.00586 L 425.42188 456.04102 L 425.42188 454.07812 L 427.38477 454.07812 L 429.34961 454.07812 L 429.34961 442.64844 L 429.34961 431.2207 L 425.59961 431.2207 L 421.84961 431.2207 L 421.84961 442.82812 L 421.84961 454.43555 L 415.7793 454.43555 L 409.70703 454.43555 L 409.70703 442.82812 L 409.70703 431.2207 L 405.95703 431.2207 L 402.20703 431.2207 z M 437.56445 431.2207 L 437.56445 444.61328 L 437.56445 458.00586 L 450.95703 458.00586 L 464.34961 458.00586 L 464.34961 456.2207 L 464.34961 454.43555 L 454.70703 454.43555 L 445.06445 454.43555 L 445.06445 450.32812 L 445.06445 446.2207 L 452.74219 446.2207 L 460.42188 446.2207 L 460.42188 444.43555 L 460.42188 442.64844 L 452.74219 442.64844 L 445.06445 442.64844 L 445.06445 438.54102 L 445.06445 434.43555 L 454.70703 434.43555 L 464.34961 434.43555 L 464.34961 432.82812 L 464.34961 431.2207 L 450.95703 431.2207 L 437.56445 431.2207 z M 472.56445 431.2207 L 472.56445 444.61328 L 472.56445 458.00586 L 484.17188 458.00586 L 495.7793 458.00586 L 495.7793 456.2207 L 495.7793 454.43555 L 487.92188 454.43555 L 480.06445 454.43555 L 480.06445 442.82812 L 480.06445 431.2207 L 476.31445 431.2207 L 472.56445 431.2207 z M 503.99219 431.2207 L 503.99219 436.75586 L 503.99219 442.29102 L 505.7793 442.29102 L 507.56445 442.29102 L 507.56445 444.25586 L 507.56445 446.2207 L 509.5293 446.2207 L 511.49219 446.2207 L 511.49219 452.11328 L 511.49219 458.00586 L 515.23438 458.00586 L 518.97461 458.00586 L 519.07227 452.20312 L 519.17188 446.39844 L 521.02734 446.29102 L 522.88477 446.18359 L 522.99219 444.32812 L 523.09961 442.4707 L 524.97461 442.36328 L 526.84961 442.25391 L 526.84961 436.73828 L 526.84961 431.2207 L 523.09961 431.2207 L 519.34961 431.2207 L 519.34961 436.93555 L 519.34961 442.64844 L 515.42188 442.64844 L 511.49219 442.64844 L 511.49219 436.93555 L 511.49219 431.2207 L 507.74219 431.2207 L 503.99219 431.2207 z M 374.70703 434.43555 L 380.59961 434.43555 L 386.49219 434.43555 L 386.49219 442.4707 L 386.49219 450.50586 L 384.5293 450.50586 L 382.56445 450.50586 L 382.56445 452.4707 L 382.56445 454.43555 L 378.63477 454.43555 L 374.70703 454.43555 L 374.70703 444.43555 L 374.70703 434.43555 z M 538.84375 481.72461 L 538.84375 483.74414 C 538.84375 485.71635 538.80184 485.76562 537.07617 485.76562 L 535.30859 485.76562 L 535.30859 495.36133 L 535.30859 504.95703 L 537.07617 504.95703 C 538.80183 504.95703 538.84375 505.00632 538.84375 506.97852 L 538.84375 508.99805 L 546.41992 508.99805 L 553.99609 508.99805 L 553.99609 507.24609 L 553.99609 505.49609 L 548.31445 505.35352 L 542.63281 505.21094 L 542.49609 495.23438 L 542.35742 485.25977 L 548.42969 485.25977 L 554.50195 485.25977 L 554.50195 487.2793 L 554.50195 489.30078 L 558.28906 489.30078 L 562.07812 489.30078 L 562.07812 487.5332 C 562.07812 485.80754 562.02884 485.76562 560.05664 485.76562 L 558.03711 485.76562 L 558.03711 483.74414 L 558.03711 481.72461 L 548.44141 481.72461 L 538.84375 481.72461 z M 265.42188 481.93555 L 265.42188 493.54102 L 265.42188 505.14844 L 259.5293 505.14844 L 253.63477 505.14844 L 253.63477 501.2207 L 253.63477 497.29102 L 249.88477 497.29102 L 246.13477 497.29102 L 246.13477 501.02344 L 246.13477 504.75391 L 248.00977 504.86328 L 249.88477 504.9707 L 249.99414 506.8457 L 250.10156 508.7207 L 259.5293 508.7207 L 268.95508 508.7207 L 269.0625 506.8457 L 269.17188 504.9707 L 271.04688 504.86328 L 272.92188 504.75391 L 272.92188 493.34375 L 272.92188 481.93555 L 269.17188 481.93555 L 265.42188 481.93555 z M 285.06445 481.93555 L 285.06445 483.7207 L 285.06445 485.50586 L 283.09961 485.50586 L 281.13477 485.50586 L 281.13477 497.11328 L 281.13477 508.7207 L 284.87305 508.7207 L 288.61133 508.7207 L 288.71289 504.88086 L 288.81445 501.04102 L 294.70703 501.04102 L 300.59961 501.04102 L 300.70117 504.88086 L 300.80273 508.7207 L 304.54102 508.7207 L 308.2793 508.7207 L 308.2793 497.11328 L 308.2793 485.50586 L 306.31445 485.50586 L 304.34961 485.50586 L 304.34961 483.7207 L 304.34961 481.93555 L 294.70703 481.93555 L 285.06445 481.93555 z M 316.49219 481.93555 L 316.49219 487.4707 L 316.49219 493.00586 L 318.2793 493.00586 L 320.06445 493.00586 L 320.06445 494.9707 L 320.06445 496.93555 L 322.0293 496.93555 L 323.99219 496.93555 L 323.99219 502.82812 L 323.99219 508.7207 L 327.73438 508.7207 L 331.47461 508.7207 L 331.57227 502.91602 L 331.67188 497.11328 L 333.52734 497.00586 L 335.38477 496.89844 L 335.49219 495.04102 L 335.59961 493.18555 L 337.47461 493.07617 L 339.34961 492.96875 L 339.34961 487.45117 L 339.34961 481.93555 L 335.59961 481.93555 L 331.84961 481.93555 L 331.84961 487.64844 L 331.84961 493.36328 L 327.92188 493.36328 L 323.99219 493.36328 L 323.99219 487.64844 L 323.99219 481.93555 L 320.24219 481.93555 L 316.49219 481.93555 z M 347.56445 481.93555 L 347.56445 495.32812 L 347.56445 508.7207 L 351.31445 508.7207 L 355.06445 508.7207 L 355.06445 506.75586 L 355.06445 504.79102 L 357.0293 504.79102 L 358.99219 504.79102 L 358.99219 502.81055 L 358.99219 500.82812 L 361.04688 500.93555 L 363.09961 501.04102 L 363.20703 502.89844 L 363.31445 504.75586 L 365.17188 504.86328 L 367.0293 504.9707 L 367.13672 506.8457 L 367.24414 508.7207 L 370.97656 508.7207 L 374.70703 508.7207 L 374.70703 495.32812 L 374.70703 481.93555 L 370.95703 481.93555 L 367.20703 481.93555 L 367.20703 489.61328 L 367.20703 497.29102 L 365.06445 497.29102 L 362.92188 497.29102 L 362.92188 495.32812 L 362.92188 493.36328 L 361.13477 493.36328 L 359.34961 493.36328 L 359.34961 495.32812 L 359.34961 497.29102 L 357.20703 497.29102 L 355.06445 497.29102 L 355.06445 489.61328 L 355.06445 481.93555 L 351.31445 481.93555 L 347.56445 481.93555 z M 386.49219 481.93555 L 386.49219 483.7207 L 386.49219 485.50586 L 384.5293 485.50586 L 382.56445 485.50586 L 382.56445 497.11328 L 382.56445 508.7207 L 386.49219 508.7207 L 390.42188 508.7207 L 390.42188 504.79102 L 390.42188 500.86328 L 396.31445 500.86328 L 402.20703 500.86328 L 402.20703 504.79102 L 402.20703 508.7207 L 405.95703 508.7207 L 409.70703 508.7207 L 409.70703 497.11328 L 409.70703 485.50586 L 407.74219 485.50586 L 405.7793 485.50586 L 405.7793 483.7207 L 405.7793 481.93555 L 396.13477 481.93555 L 386.49219 481.93555 z M 417.92188 481.93555 L 417.92188 495.32812 L 417.92188 508.7207 L 429.5293 508.7207 L 441.13477 508.7207 L 441.13477 506.93555 L 441.13477 505.14844 L 433.2793 505.14844 L 425.42188 505.14844 L 425.42188 493.54102 L 425.42188 481.93555 L 421.67188 481.93555 L 417.92188 481.93555 z M 448.99219 481.93555 L 448.99219 495.32812 L 448.99219 508.7207 L 452.73438 508.7207 L 456.47461 508.7207 L 456.57227 502.91602 L 456.67188 497.11328 L 458.72461 497.00586 L 460.7793 496.89844 L 460.7793 498.88086 L 460.7793 500.86328 L 462.74219 500.86328 L 464.70703 500.86328 L 464.70703 502.82812 L 464.70703 504.79102 L 466.67188 504.79102 L 468.63477 504.79102 L 468.63477 506.75586 L 468.63477 508.7207 L 472.38477 508.7207 L 476.13477 508.7207 L 476.13477 506.93555 L 476.13477 505.14844 L 474.17188 505.14844 L 472.20703 505.14844 L 472.20703 503.18555 L 472.20703 501.2207 L 470.24219 501.2207 L 468.2793 501.2207 L 468.2793 499.25586 L 468.2793 497.29102 L 466.29688 497.29102 L 464.31445 497.29102 L 464.42188 495.23828 L 464.5293 493.18555 L 466.38477 493.07812 L 468.24219 492.9707 L 468.34961 491.11328 L 468.45703 489.25586 L 470.33203 489.14844 L 472.20703 489.04102 L 472.20703 487.27344 L 472.20703 485.50586 L 474.17188 485.50586 L 476.13477 485.50586 L 476.13477 483.7207 L 476.13477 481.93555 L 472.38477 481.93555 L 468.63477 481.93555 L 468.63477 483.7207 L 468.63477 485.50586 L 466.67188 485.50586 L 464.70703 485.50586 L 464.70703 487.4707 L 464.70703 489.43555 L 462.74219 489.43555 L 460.7793 489.43555 L 460.7793 491.39844 L 460.7793 493.36328 L 458.63477 493.36328 L 456.49219 493.36328 L 456.49219 487.64844 L 456.49219 481.93555 L 452.74219 481.93555 L 448.99219 481.93555 z M 484.34961 481.93555 L 484.34961 495.32812 L 484.34961 508.7207 L 488.09961 508.7207 L 491.84961 508.7207 L 491.84961 495.32812 L 491.84961 481.93555 L 488.09961 481.93555 L 484.34961 481.93555 z M 500.06445 481.93555 L 500.06445 495.32812 L 500.06445 508.7207 L 503.81445 508.7207 L 507.56445 508.7207 L 507.56445 500.84375 L 507.56445 492.96875 L 509.43945 493.07617 L 511.31445 493.18555 L 511.42188 495.06055 L 511.5293 496.93555 L 513.47656 496.93555 L 515.42188 496.93555 L 515.42188 498.89844 L 515.42188 500.86328 L 517.38477 500.86328 L 519.34961 500.86328 L 519.34961 504.79102 L 519.34961 508.7207 L 523.09961 508.7207 L 526.84961 508.7207 L 526.84961 495.32812 L 526.84961 481.93555 L 523.09961 481.93555 L 519.34961 481.93555 L 519.34961 487.64844 L 519.34961 493.36328 L 517.20703 493.36328 L 515.06445 493.36328 L 515.06445 491.39844 L 515.06445 489.43555 L 513.09961 489.43555 L 511.13477 489.43555 L 511.13477 487.4707 L 511.13477 485.50586 L 509.34961 485.50586 L 507.56445 485.50586 L 507.56445 483.7207 L 507.56445 481.93555 L 503.81445 481.93555 L 500.06445 481.93555 z M 288.63477 485.50586 L 294.70703 485.50586 L 300.7793 485.50586 L 300.7793 491.39844 L 300.7793 497.29102 L 294.70703 497.29102 L 288.63477 497.29102 L 288.63477 491.39844 L 288.63477 485.50586 z M 390.42188 485.50586 L 396.31445 485.50586 L 402.20703 485.50586 L 402.20703 491.39844 L 402.20703 497.29102 L 396.31445 497.29102 L 390.42188 497.29102 L 390.42188 491.39844 L 390.42188 485.50586 z M 550.9668 493.33984 L 550.9668 495.10938 C 550.9668 496.79293 551.05079 496.87695 552.73438 496.87695 L 554.50195 496.87695 L 554.50195 500.91602 L 554.50195 504.95703 L 556.52148 504.95703 L 558.54297 504.95703 L 558.54297 506.97852 C 558.54297 508.95073 558.58488 508.99805 560.31055 508.99805 L 562.07812 508.99805 L 562.07812 501.16992 L 562.07812 493.33984 L 556.52148 493.33984 L 550.9668 493.33984 z M 476.49219 497.29102 L 476.49219 499.07812 L 476.49219 500.86328 L 478.2793 500.86328 L 480.06445 500.86328 L 480.06445 499.07812 L 480.06445 497.29102 L 478.2793 497.29102 L 476.49219 497.29102 z "
       transform="scale(0.26458333)"
       id="path886"
       inkscape:export-filename="C:\Users\juj000o\Documents\j-walker\Assets\Main Menu\title.png"
       inkscape:export-xdpi="400.30099"
       inkscape:export-ydpi="400.30099" />
    <text
       xml:space="preserve"
       style="font-style:normal;font-variant:normal;font-weight:normal;font-stretch:normal;font-size:10.58333302px;line-height:1.25;font-family:Bahnschrift;-inkscape-font-specification:Bahnschrift;letter-spacing:0px;word-spacing:0px;fill:#000000;fill-opacity:1;stroke:none;stroke-width:0.26458332"
       x="106.90303"
       y="121.24106"
       id="text817"
       inkscape:export-filename="C:\Users\juj000o\Documents\j-walker\Assets\Main Menu\title.png"
       inkscape:export-xdpi="400.30099"
       inkscape:export-ydpi="400.30099"><tspan
         sodipodi:role="line"
         id="tspan815"
         x="108.37064"
         y="121.24106"
         style="font-style:normal;font-variant:normal;font-weight:normal;font-stretch:normal;font-family:'Karmatic Arcade';-inkscape-font-specification:'Karmatic Arcade';text-align:center;text-anchor:middle;fill:#d45500;stroke-width:0.26458332">Uniquely </tspan><tspan
         sodipodi:role="line"
         x="106.90303"
         y="134.66275"
         style="font-style:normal;font-variant:normal;font-weight:normal;font-stretch:normal;font-family:'Karmatic Arcade';-inkscape-font-specification:'Karmatic Arcade';text-align:center;text-anchor:middle;fill:#d45500;stroke-width:0.26458332"
         id="tspan814">Jaywalking</tspan></text>
  </g>
</svg>
